<?xml version="1.0" encoding="utf-8"?>
<svg width="16" height="22" version="1.1" xmlns="http://www.w3.org/2000/svg">
    <path fill="#DA4648" d="M10.108 12.96l0.424-0.724s-0.964 0.395-2.578 0.395c-1.614 0-2.564-0.38-2.564-0.38l0.475 0.79 0.168 2.49c0 0.27 0.878 0.48 1.96 0.48 1.084 0 1.962-0.21 1.962-0.48l0.153-2.56zM10.518 8.255c-0.513 0.030-0.77 0.603-1.028 1.205-0.095 0.22-0.42 1.16-0.633 1.044s0.276-0.888 0.413-1.347c-0.158 0.116-0.738 0.567-0.887 0.144-0.24 0.21-0.754 0.32-0.696-0.22-0.128 0.23-0.415 0.55-0.76 0.41-0.45-0.17 0.263-1.61 0.44-1.54 0.178 0.080-0.035 0.4-0.090 0.53-0.124 0.28-0.266 0.64-0.17 0.71 0.16 0.13 0.603-0.47 0.613-0.48 0.083-0.11 0.32-0.82 0.51-0.74 0.19 0.090-0.475 1.030-0.227 1.22 0.050 0.040 0.255-0.020 0.38-0.16 0.080-0.080 0.052-0.28 0.32-0.92 0.27-0.64 0.51-1.44 0.694-1.38s0.032 0.47-0.034 0.63c-0.31 0.72-0.847 1.9-0.594 1.81 0.25-0.090 0.38-0.090 0.63-0.38s0.23-0.77 0.4-0.76c0.16 0.010 0.14 0.17 0.1 0.28 0.16-0.18 0.77-0.58 0.91-0.19 0.17 0.46-0.87 1.13-0.61 1.090 0.25-0.030 0.66-0.29 0.84-0.53l0.48-4.34s-0.49 0.4-3.58 0.4-3.53-0.39-3.53-0.39l0.41 3.96c0.22-0.62 0.74-1.88 1.55-1.83 0.37 0.020 0.87 0.74 0.44 0.76-0.18 0.010-0.2-0.36-0.41-0.41-0.16-0.030-0.37 0.090-0.51 0.23-0.27 0.27-0.87 1.34-0.79 1.87 0.1 0.68 0.94-0.23 1.080-0.5 0.1-0.19 0.17-0.76 0.38-0.7 0.22 0.060-0.020 0.65-0.18 1.16-0.18 0.58-0.27 1.19-0.49 1.12s0.14-0.82 0.12-0.95c-0.21 0.2-0.59 0.68-1.090 0.44l0.25 2.47s0.68 0.53 2.72 0.53 2.75-0.53 2.75-0.53l0.32-2.86c-0.26 0.26-1.080 0.71-1.13 0.2-0.040-0.41 0.89-1 0.65-1.010zM11.581 0.419v-0.020c0.040-0.060-0.030-0.19-0.16-0.29-0.129-0.11-0.27-0.16-0.316-0.1l-1.887 2-0.374 1.52c-0.281-0.010-0.562-0.010-0.844-0.010-1.988 0-3.6 0.23-3.6 0.51s1.612 0.51 3.6 0.51c1.988 0 3.6-0.226 3.6-0.506 0-0.206-0.874-0.383-2.13-0.463l0.324-1.27 1.776-1.87zM9.010 4.3s-0.35 0-0.408-0.054c-0.015-0.016-0.024-0.038-0.024-0.060 0-0.038 0.026-0.060 0.060-0.073l0.030 0.050c-0.014 0.004-0.020 0.010-0.022 0.015 0 0.028 0.21 0.047 0.37 0.045s0.355-0.016 0.356-0.043c0-0.008-0.015-0.016-0.040-0.022l0.030-0.048c0.042 0.013 0.078 0.038 0.078 0.080 0 0.074-0.094 0.086-0.154 0.094-0.072 0.010-0.275 0.016-0.275 0.016z"></path>
</svg>